PathFileType	4	(X/Y/Z)	./resultDataOpenSim/trcMotMarkerGrf/sub10/qtm-03-08.trc
DataRate	CameraRate	NumFrames	NumMarkers	Units	OrigDataRate	OrigDataStartFrame	OrigNumFrames
250.000000	250.000000	9	24	m	250.000000	125	496
Frame#	Time	L.Toe.Tip			R.Toe.Tip			L.Ankle.Lat			R.Ankle.Lat			L.Ankle.Med			R.Ankle.Med			L.Heel			R.Heel			L.Knee.Lat			R.Knee.Lat			L.Knee.Med			R.Knee.Med			L.Thigh.Upper			R.Thigh.Upper			L.ASIS			R.ASIS			V.Sacral			L.Acromium			R.Acromium			C7			L.Elbow			R.Elbow			L.Wrist.Lat			R.Wrist.Lat
		X1	Y1	Z1	X2	Y2	Z2	X3	Y3	Z3	X4	Y4	Z4	X5	Y5	Z5	X6	Y6	Z6	X7	Y7	Z7	X8	Y8	Z8	X9	Y9	Z9	X10	Y10	Z10	X11	Y11	Z11	X12	Y12	Z12	X13	Y13	Z13	X14	Y14	Z14	X15	Y15	Z15	X16	Y16	Z16	X17	Y17	Z17	X18	Y18	Z18	X19	Y19	Z19	X20	Y20	Z20	X21	Y21	Z21	X22	Y22	Z22	X23	Y23	Z23	X24	Y24	Z24

125	0.496	-0.51140571	0.062794084	-0.15203819	-0.70267218	0.039233619	0.047367341	-0.62909502	0.12780306	-0.1564885	-0.84637243	0.057473033	0.074268281	-0.6042677	0.14123659	-0.077091133	-0.82153726	0.081630771	-0.0097461703	-0.69228823	0.1131199	-0.099568159	-0.89428303	0.033567697	0.024180404	-0.49399996	0.49281724	-0.17808861	-0.73248145	0.44681915	0.11579237	-0.46698047	0.46502705	-0.061439416	-0.72066272	0.44622912	-0.015951916	-0.64078493	0.84410643	-0.21689147	-0.67969656	0.8564514	0.16460427	-0.59409501	0.94981005	-0.14508091	-0.59617421	0.9466731	0.098522784	-0.80007046	0.97106195	-0.020574228	-0.65353391	1.4280557	-0.16656566	-0.63803396	1.4085308	0.15676079	-0.727794	1.4476077	-0.002898518	-0.80909137	1.1255112	-0.23999581	-0.6727191	1.0560307	0.21832034	-0.69057149	0.90702263	-0.26822392	-0.48772672	0.89159504	0.22365736
126	0.5	-0.49290221	0.062199963	-0.15224215	-0.70263425	0.039286494	0.047461354	-0.61256791	0.12373025	-0.15662103	-0.84640141	0.057522089	0.074254571	-0.58819518	0.13776161	-0.077306988	-0.82149115	0.081742204	-0.0097005631	-0.67474837	0.10701591	-0.099806436	-0.8942941	0.033639922	0.024178416	-0.48664748	0.49260046	-0.17761743	-0.73254049	0.44663725	0.11650558	-0.45967725	0.46512794	-0.06086507	-0.71958546	0.44579905	-0.015729393	-0.63428517	0.84368753	-0.2168283	-0.67654588	0.85582923	0.16529532	-0.5879826	0.94911552	-0.14480539	-0.59174988	0.94590104	0.098935677	-0.79535539	0.97073104	-0.020378409	-0.64892877	1.4274692	-0.16668008	-0.63256431	1.4078279	0.15669353	-0.7225998	1.446855	-0.0028440685	-0.80560822	1.1253957	-0.23972102	-0.6648927	1.0549635	0.21917657	-0.68867485	0.90623156	-0.26877621	-0.47724126	0.8932181	0.22261263
127	0.504	-0.47431634	0.06175988	-0.15232841	-0.70262709	0.039317945	0.047538463	-0.59587402	0.11972285	-0.15675216	-0.84643044	0.057572292	0.074239206	-0.57155234	0.13448428	-0.077326775	-0.821496	0.081806657	-0.0096973112	-0.6570487	0.10088874	-0.10016639	-0.8943089	0.033703939	0.024180669	-0.47939306	0.49214993	-0.17718607	-0.7314059	0.44629028	0.1168247	-0.45236187	0.4651188	-0.06021345	-0.71847145	0.44538605	-0.015544503	-0.62763617	0.84322074	-0.21675709	-0.6730277	0.85521149	0.16553446	-0.58188473	0.94832641	-0.14454117	-0.5873177	0.94509587	0.099340936	-0.7905251	0.97026443	-0.020341574	-0.64426967	1.4267717	-0.1668001	-0.62708063	1.4070435	0.15660739	-0.71719707	1.4460554	-0.0027926596	-0.80203097	1.125222	-0.23939288	-0.65703056	1.0538519	0.21998101	-0.68674847	0.90539573	-0.26932986	-0.46686	0.89484251	0.22154115
128	0.508	-0.45568878	0.061457516	-0.15231663	-0.70266429	0.039327695	0.047598438	-0.57903105	0.11579316	-0.1568819	-0.84644853	0.057626597	0.074219312	-0.55476968	0.13129428	-0.077299918	-0.82150354	0.081823201	-0.0097096998	-0.63942709	0.094914301	-0.10060336	-0.89433059	0.033776339	0.024132319	-0.47221423	0.49146988	-0.1767826	-0.72949981	0.44581652	0.11665058	-0.44503022	0.46499807	-0.059493147	-0.71708126	0.44502025	-0.0153412	-0.62078745	0.8427047	-0.21668936	-0.66925505	0.85458051	0.16547329	-0.57584242	0.9474416	-0.14427797	-0.58287264	0.9442617	0.099729336	-0.78555145	0.96964459	-0.020520943	-0.6395344	1.4259379	-0.16692019	-0.62159272	1.4061741	0.1565031	-0.7116645	1.4452114	-0.002744409	-0.79839875	1.1249852	-0.23905151	-0.64913659	1.0526943	0.22073964	-0.68478512	0.90452009	-0.26988713	-0.45655803	0.89645556	0.22040951
129	0.512	-0.43707837	0.061274397	-0.15222181	-0.702717	0.039331026	0.047654609	-0.56207539	0.111944	-0.15702314	-0.84645325	0.057684623	0.074183778	-0.53823214	0.12809377	-0.0773473	-0.82142567	0.081820848	-0.0096864486	-0.62185079	0.089203014	-0.10101907	-0.89436225	0.033884341	0.023936369	-0.46509285	0.49058833	-0.1763856	-0.72794071	0.44537201	0.11639252	-0.43780849	0.46471423	-0.058796637	-0.71532598	0.44470561	-0.01507934	-0.61386772	0.84211923	-0.21664913	-0.66541235	0.85393684	0.1653501	-0.56982488	0.94647868	-0.14401708	-0.57840198	0.94339211	0.10008751	-0.78042546	0.96887106	-0.020936119	-0.63474297	1.4249873	-0.16704854	-0.61608573	1.4052243	0.15637344	-0.70623747	1.4443092	-0.0027139919	-0.79473963	1.1246792	-0.23872302	-0.64125461	1.0514822	0.22153359	-0.68276988	0.9036018	-0.27044211	-0.44630941	0.89804557	0.21923246
130	0.516	-0.41852	0.061206718	-0.15204395	-0.70274646	0.039351101	0.047725867	-0.54502437	0.10818137	-0.15718159	-0.84645135	0.057746699	0.074114181	-0.52189572	0.12490521	-0.077411061	-0.82123495	0.081832797	-0.0096140156	-0.60419975	0.083735589	-0.10137543	-0.89440455	0.034047252	0.023517293	-0.45803075	0.48953666	-0.17600772	-0.72718297	0.4451101	0.11653902	-0.43085658	0.46420089	-0.058239474	-0.71335076	0.44441552	-0.014790204	-0.60706993	0.84143443	-0.21663347	-0.66158966	0.85328335	0.16528212	-0.56377777	0.94545426	-0.14376534	-0.57390218	0.94247894	0.10041508	-0.77517972	0.96797591	-0.021525711	-0.62991062	1.4239489	-0.16718967	-0.6105176	1.404201	0.15620997	-0.70102365	1.4433309	-0.0027143576	-0.79106528	1.1243004	-0.23841598	-0.63347684	1.0501946	0.22253722	-0.68070537	0.90262978	-0.2709879	-0.43609041	0.8996128	0.2180516
131	0.52	-0.40000796	0.061271398	-0.15177364	-0.7027359	0.039405649	0.047816715	-0.52787825	0.10451955	-0.15734999	-0.84644899	0.057812668	0.074004623	-0.50563676	0.12181652	-0.077440994	-0.82100956	0.081860457	-0.0095437019	-0.58641049	0.078440052	-0.1016613	-0.89445139	0.034242345	0.022952951	-0.45104118	0.48833853	-0.17569228	-0.72644399	0.44496569	0.11693391	-0.42421832	0.46343823	-0.057857075	-0.71137309	0.44410505	-0.014544923	-0.60045412	0.84063319	-0.21660934	-0.65777136	0.85259917	0.16525568	-0.55767269	0.94437523	-0.14352064	-0.56938497	0.94152397	0.1007239	-0.76988359	0.96701223	-0.022159072	-0.62503367	1.4228422	-0.16734058	-0.60487264	1.4031035	0.15601388	-0.69591668	1.4422712	-0.0027442113	-0.78737794	1.1238535	-0.23813302	-0.62587869	1.0488067	0.22389157	-0.6786112	0.90159502	-0.27152707	-0.42590145	0.90116304	0.21688736
132	0.524	-0.38152881	0.06149209	-0.15139581	-0.7027115	0.039485637	0.047898745	-0.51065091	0.10097473	-0.15752318	-0.84644841	0.057873092	0.073888662	-0.48948316	0.1188911	-0.07749958	-0.82083322	0.08188366	-0.0095292854	-0.56849747	0.073282078	-0.10188451	-0.89449138	0.034418087	0.02245283	-0.44413353	0.48701603	-0.17546646	-0.72502743	0.44465242	0.11691244	-0.41781786	0.46245731	-0.057600594	-0.70955007	0.44372263	-0.014405829	-0.59393761	0.83972356	-0.21655371	-0.65391477	0.85185976	0.16522382	-0.55151343	0.94324456	-0.14327439	-0.56485939	0.940534	0.10102194	-0.76459131	0.96600495	-0.022739376	-0.62011369	1.4216737	-0.1674993	-0.59919454	1.4019277	0.15579617	-0.69077511	1.4411374	-0.0027924037	-0.78367449	1.1233521	-0.23786971	-0.61840406	1.0473212	0.22547447	-0.6764991	0.90050043	-0.27206851	-0.41577756	0.90270552	0.21573754
133	0.528	-0.3630909	0.061886003	-0.15088799	-0.7027184	0.039553021	0.047933493	-0.49337331	0.097566756	-0.15770229	-0.84645198	0.057915317	0.073818405	-0.47336522	0.11614007	-0.077592812	-0.82071377	0.081893111	-0.0095804248	-0.55053867	0.06830017	-0.10213641	-0.89451845	0.03454854	0.022148576	-0.43731502	0.48557999	-0.17532268	-0.72326535	0.44396737	0.11622267	-0.41156284	0.4612983	-0.057410189	-0.70791416	0.44323929	-0.014395254	-0.58742829	0.83872354	-0.21647253	-0.65001247	0.85106639	0.16517848	-0.54531937	0.94206867	-0.14302363	-0.56032596	0.93950928	0.10131106	-0.75931052	0.96493279	-0.02326174	-0.61516279	1.4204368	-0.16766885	-0.59353369	1.400676	0.15556458	-0.68554959	1.4399381	-0.0028514909	-0.77994912	1.1228087	-0.23760904	-0.61088605	1.0457806	0.22693175	-0.67437116	0.89935576	-0.27261556	-0.40575667	0.90424384	0.21459523
